<?xml version="1.0" encoding="UTF-8" standalone="no"?>
<!-- Created with Inkscape (http://www.inkscape.org/) -->

<svg
   width="132.29166mm"
   height="70.871483mm"
   viewBox="0 0 132.29166 70.871481"
   version="1.1"
   id="svg1"
   inkscape:version="1.4 (86a8ad7, 2024-10-11)"
   sodipodi:docname="Compal logo.svg"
   xmlns:inkscape="http://www.inkscape.org/namespaces/inkscape"
   xmlns:sodipodi="http://sodipodi.sourceforge.net/DTD/sodipodi-0.dtd"
   xmlns="http://www.w3.org/2000/svg"
   xmlns:svg="http://www.w3.org/2000/svg">
  <sodipodi:namedview
     id="namedview1"
     pagecolor="#ffffff"
     bordercolor="#000000"
     borderopacity="0.25"
     inkscape:showpageshadow="2"
     inkscape:pageopacity="0.0"
     inkscape:pagecheckerboard="0"
     inkscape:deskcolor="#d1d1d1"
     inkscape:document-units="mm"
     inkscape:zoom="1.9729351"
     inkscape:cx="229.10029"
     inkscape:cy="122.91332"
     inkscape:window-width="1920"
     inkscape:window-height="1001"
     inkscape:window-x="-9"
     inkscape:window-y="-9"
     inkscape:window-maximized="1"
     inkscape:current-layer="layer1" />
  <defs
     id="defs1" />
  <g
     inkscape:label="Layer 1"
     inkscape:groupmode="layer"
     id="layer1"
     transform="translate(-208.01409,-216.4156)">
    <path
       d="m 327.72053,263.32372 v 23.15376 h 12.58522 v -4.12423 h -7.53621 v -19.02953 h -5.05063 v 0 z m -16.94308,0 -8.82442,23.15376 h 5.35079 l 1.66624,-4.23942 h 9.50746 l 1.57214,4.23942 h 5.37837 l -8.64108,-23.15376 z m -0.60842,15.30929 3.50609,-10.44523 3.43955,10.44523 h -6.94725 z m -68.94209,-16.1205 c -3.55475,0 -6.98458,1.40664 -9.41174,3.85652 -2.18704,2.20651 -3.34222,5.00034 -3.34222,8.0781 0,3.62776 1.26713,6.90346 3.56449,9.22354 2.31197,2.33306 5.57469,3.61641 9.18947,3.61641 7.507,0 12.75233,-5.28103 12.75233,-12.84157 0,-3.07776 -1.15517,-5.87159 -3.34059,-8.0781 -2.42716,-2.4515 -5.85861,-3.85815 -9.41174,-3.85815 v 0 z m 5.64445,17.71535 c -1.36447,1.38719 -3.23189,2.16596 -5.17881,2.16109 -1.9453,0.005 -3.8111,-0.7739 -5.17557,-2.16109 -1.46668,-1.48128 -2.27303,-3.52068 -2.27303,-5.74828 0,-3.83057 3.41036,-7.06732 7.4486,-7.06732 2.02318,0.0113 3.96036,0.82744 5.38324,2.26492 1.33202,1.34337 2.06535,3.04855 2.06535,4.80078 0,2.2276 -0.80797,4.267 -2.2714,5.74828 z m -35.47452,-13.79393 c -2.18055,2.26492 -3.38278,5.28265 -3.38278,8.49993 0,3.58883 1.23629,6.53679 3.67643,8.76277 2.40932,2.213 5.48221,3.43145 8.65893,3.43145 1.72466,0 3.10048,-0.40074 4.92896,-0.96859 v -5.68177 c -1.36609,1.09839 -3.09723,1.74899 -4.79916,1.74899 -2.05238,0 -3.83057,-0.69928 -5.13987,-2.02156 -1.30444,-1.31579 -2.01993,-3.17672 -2.01993,-5.24046 0,-4.27998 2.97068,-7.39019 7.06245,-7.39019 1.83822,0 3.57585,0.63924 4.89976,1.75385 v -5.61524 c -1.78144,-0.69927 -3.42171,-1.04323 -5.12365,-1.04323 -3.21404,0 -6.48974,1.40827 -8.76114,3.76243 z m 90.30468,-0.99942 c -1.38881,-1.40178 -3.51581,-2.11403 -6.31938,-2.11403 h -8.99964 v 23.157 h 5.04739 v -8.09108 h 4.17777 c 5.34754,0 7.94344,-2.50504 7.94344,-7.66114 0,-2.2714 -0.62302,-4.04959 -1.84958,-5.28913 z m -4.33352,8.05701 c -1.02051,1.03024 -2.66728,1.03024 -4.26051,1.03024 h -1.6776 v -7.33502 h 1.67597 c 1.58675,0 3.22703,0 4.23943,1.02051 0.60679,0.6149 0.90369,1.50075 0.90369,2.71271 0,1.13408 -0.29041,1.97612 -0.8826,2.57156 v 0.002 z m -21.88339,-10.1678 -5.63147,14.13465 -5.31347,-14.13627 h -5.24047 l -3.89383,23.15701 h 4.98573 l 2.26492,-15.97612 6.31938,15.97612 h 1.66949 l 6.62277,-15.74411 1.96801,15.74411 h 5.01982 l -3.46877,-23.15701 z m 17.43118,-32.28674 c 0.1736,0.99943 0.26445,2.02804 0.26445,3.07614 0,9.77517 -7.85096,17.69913 -17.53364,17.69913 -9.68269,0 -17.53365,-7.92559 -17.53365,-17.69913 0,-9.77355 7.84934,-17.69752 17.53365,-17.69752 1.03673,0 2.05075,0.0909 3.0372,0.26446 l -0.84854,4.8738 c -0.72198,-0.12656 -1.45532,-0.19145 -2.18866,-0.19145 -6.97647,0 -12.63227,5.70935 -12.63227,12.75071 0,7.04136 5.6558,12.75071 12.63227,12.75071 6.97646,0 12.63227,-5.70772 12.63227,-12.75071 0,-0.75606 -0.0649,-1.49913 -0.19145,-2.21949 l 4.82837,-0.85827 m -6.22204,1.11137 -4.82512,0.84853 c 0.0633,0.36343 0.0957,0.73821 0.0957,1.11948 0,3.5223 -2.82952,6.37779 -6.31613,6.37779 -0.81933,0 -1.63217,-0.16062 -2.38985,-0.47375 l 9.1992,-9.28519 -3.46065,-3.4931 -9.1992,9.28681 c -0.30989,-0.76579 -0.46888,-1.58512 -0.46888,-2.41256 0,-3.52392 2.82952,-6.37941 6.31776,-6.37941 0.37478,0 0.74145,0.0324 1.09514,0.0957 l 0.85178,-4.86893 c -0.64248,-0.11357 -1.29471,-0.17036 -1.94692,-0.17036 -6.19446,0 -11.21589,5.06849 -11.21589,11.32135 0,6.25286 5.02143,11.32135 11.21589,11.32135 6.19445,0 11.21588,-5.07011 11.21588,-11.32135 0,-0.67169 -0.0568,-1.32877 -0.16873,-1.96801"
       style="fill:#64a70b;stroke-width:0px"
       id="path1" />
  </g>
</svg>
